<?xml version="1.0" encoding="UTF-8" standalone="no"?>
<!DOCTYPE svg PUBLIC "-//W3C//DTD SVG 1.1//EN"
 "http://www.w3.org/Graphics/SVG/1.1/DTD/svg11.dtd">
<!-- Generated by graphviz version 2.40.1 (20161225.0304)
 -->
<!-- Title: dependencies Pages: 1 -->
<svg width="504pt" height="211pt"
 viewBox="0.00 0.00 504.00 211.00" xmlns="http://www.w3.org/2000/svg" xmlns:xlink="http://www.w3.org/1999/xlink">
<g id="graph0" class="graph" transform="scale(1 1) rotate(0) translate(4 207)">
<title>dependencies</title>
<polygon fill="#ffffff" stroke="transparent" points="-4,4 -4,-207 500,-207 500,4 -4,4"/>
<text text-anchor="start" x="227.0091" y="-42.4" font-family="sans-serif" font-weight="bold" font-size="14.00" fill="#000000">Legend</text>
<polygon fill="#ffffb3" stroke="transparent" points="14,-10 14,-30 34,-30 34,-10 14,-10"/>
<text text-anchor="start" x="37.629" y="-15.4" font-family="sans-serif" font-size="14.00" fill="#000000"> &#160;Declarations</text>
<polygon fill="#8dd3c7" stroke="transparent" points="127,-10 127,-30 147,-30 147,-10 127,-10"/>
<text text-anchor="start" x="150.7251" y="-15.4" font-family="sans-serif" font-size="14.00" fill="#000000"> &#160;Module</text>
<polygon fill="#80b1d3" stroke="transparent" points="213,-10 213,-30 233,-30 233,-10 213,-10"/>
<text text-anchor="start" x="236.7812" y="-15.4" font-family="sans-serif" font-size="14.00" fill="#000000"> &#160;Bootstrap</text>
<polygon fill="#fdb462" stroke="transparent" points="310,-10 310,-30 330,-30 330,-10 310,-10"/>
<text text-anchor="start" x="333.6732" y="-15.4" font-family="sans-serif" font-size="14.00" fill="#000000"> &#160;Providers</text>
<polygon fill="#fb8072" stroke="transparent" points="406,-10 406,-30 426,-30 426,-10 406,-10"/>
<text text-anchor="start" x="429.7258" y="-15.4" font-family="sans-serif" font-size="14.00" fill="#000000"> &#160;Exports</text>
<g id="clust1" class="cluster">
<title>cluster_LoginModule</title>
<polygon fill="none" stroke="#000000" stroke-dasharray="1,5" points="53,-70 53,-195 443,-195 443,-70 53,-70"/>
</g>
<g id="clust3" class="cluster">
<title>cluster_LoginModule_imports</title>
<polygon fill="none" stroke="#000000" points="211,-78 211,-130 435,-130 435,-78 211,-78"/>
</g>
<g id="clust6" class="cluster">
<title>cluster_LoginModule_providers</title>
<polygon fill="none" stroke="#000000" points="61,-78 61,-130 203,-130 203,-78 61,-78"/>
</g>
<!-- AuthModule -->
<g id="node1" class="node">
<title>AuthModule</title>
<polygon fill="#8dd3c7" stroke="#000000" points="426.5482,-122 423.5482,-126 402.5482,-126 399.5482,-122 339.4518,-122 339.4518,-86 426.5482,-86 426.5482,-122"/>
<text text-anchor="middle" x="383" y="-99.8" font-family="Times,serif" font-size="14.00" fill="#000000">AuthModule</text>
</g>
<!-- LoginModule -->
<g id="node3" class="node">
<title>LoginModule</title>
<polygon fill="#8dd3c7" stroke="#000000" points="316.493,-187 313.493,-191 292.493,-191 289.493,-187 223.507,-187 223.507,-151 316.493,-151 316.493,-187"/>
<text text-anchor="middle" x="270" y="-164.8" font-family="Times,serif" font-size="14.00" fill="#000000">LoginModule</text>
</g>
<!-- AuthModule&#45;&gt;LoginModule -->
<g id="edge1" class="edge">
<title>AuthModule&#45;&gt;LoginModule</title>
<path fill="none" stroke="#000000" d="M383,-122.1061C383,-141.3391 383,-169 383,-169 383,-169 326.6138,-169 326.6138,-169"/>
<polygon fill="#000000" stroke="#000000" points="326.6139,-165.5001 316.6138,-169 326.6138,-172.5001 326.6139,-165.5001"/>
</g>
<!-- ModelsModule -->
<g id="node2" class="node">
<title>ModelsModule</title>
<polygon fill="#8dd3c7" stroke="#000000" points="320.5452,-122 317.5452,-126 296.5452,-126 293.5452,-122 219.4548,-122 219.4548,-86 320.5452,-86 320.5452,-122"/>
<text text-anchor="middle" x="270" y="-99.8" font-family="Times,serif" font-size="14.00" fill="#000000">ModelsModule</text>
</g>
<!-- ModelsModule&#45;&gt;LoginModule -->
<g id="edge2" class="edge">
<title>ModelsModule&#45;&gt;LoginModule</title>
<path fill="none" stroke="#000000" d="M270,-122.1061C270,-122.1061 270,-140.991 270,-140.991"/>
<polygon fill="#000000" stroke="#000000" points="266.5001,-140.9909 270,-150.991 273.5001,-140.991 266.5001,-140.9909"/>
</g>
<!-- LoginService -->
<g id="node4" class="node">
<title>LoginService</title>
<ellipse fill="#fdb462" stroke="#000000" cx="132" cy="-104" rx="63.1209" ry="18"/>
<text text-anchor="middle" x="132" y="-99.8" font-family="Times,serif" font-size="14.00" fill="#000000">LoginService</text>
</g>
<!-- LoginService&#45;&gt;LoginModule -->
<g id="edge3" class="edge">
<title>LoginService&#45;&gt;LoginModule</title>
<path fill="none" stroke="#000000" d="M132,-122.1061C132,-141.3391 132,-169 132,-169 132,-169 213.2795,-169 213.2795,-169"/>
<polygon fill="#000000" stroke="#000000" points="213.2795,-172.5001 223.2795,-169 213.2795,-165.5001 213.2795,-172.5001"/>
</g>
</g>
</svg>
