<?xml version="1.0" encoding="UTF-8" standalone="no"?>
<!DOCTYPE svg PUBLIC "-//W3C//DTD SVG 1.1//EN"
 "http://www.w3.org/Graphics/SVG/1.1/DTD/svg11.dtd">
<!-- Generated by graphviz version 2.40.1 (20161225.0304)
 -->
<!-- Title: dependencies Pages: 1 -->
<svg width="1470pt" height="284pt"
 viewBox="0.00 0.00 1470.00 284.00" xmlns="http://www.w3.org/2000/svg" xmlns:xlink="http://www.w3.org/1999/xlink">
<g id="graph0" class="graph" transform="scale(1 1) rotate(0) translate(4 280)">
<title>dependencies</title>
<polygon fill="#ffffff" stroke="transparent" points="-4,4 -4,-280 1466,-280 1466,4 -4,4"/>
<text text-anchor="start" x="710.0091" y="-42.4" font-family="sans-serif" font-weight="bold" font-size="14.00" fill="#000000">Legend</text>
<polygon fill="#ffffb3" stroke="transparent" points="497,-10 497,-30 517,-30 517,-10 497,-10"/>
<text text-anchor="start" x="520.629" y="-15.4" font-family="sans-serif" font-size="14.00" fill="#000000"> &#160;Declarations</text>
<polygon fill="#8dd3c7" stroke="transparent" points="610,-10 610,-30 630,-30 630,-10 610,-10"/>
<text text-anchor="start" x="633.7251" y="-15.4" font-family="sans-serif" font-size="14.00" fill="#000000"> &#160;Module</text>
<polygon fill="#80b1d3" stroke="transparent" points="696,-10 696,-30 716,-30 716,-10 696,-10"/>
<text text-anchor="start" x="719.7812" y="-15.4" font-family="sans-serif" font-size="14.00" fill="#000000"> &#160;Bootstrap</text>
<polygon fill="#fdb462" stroke="transparent" points="793,-10 793,-30 813,-30 813,-10 793,-10"/>
<text text-anchor="start" x="816.6732" y="-15.4" font-family="sans-serif" font-size="14.00" fill="#000000"> &#160;Providers</text>
<polygon fill="#fb8072" stroke="transparent" points="889,-10 889,-30 909,-30 909,-10 889,-10"/>
<text text-anchor="start" x="912.7258" y="-15.4" font-family="sans-serif" font-size="14.00" fill="#000000"> &#160;Exports</text>
<g id="clust1" class="cluster">
<title>cluster_ModelsModule</title>
<polygon fill="none" stroke="#000000" stroke-dasharray="1,5" points="8,-70 8,-268 1454,-268 1454,-70 8,-70"/>
</g>
<g id="clust3" class="cluster">
<title>cluster_ModelsModule_imports</title>
<polygon fill="none" stroke="#000000" points="1306,-78 1306,-130 1446,-130 1446,-78 1306,-78"/>
</g>
<g id="clust4" class="cluster">
<title>cluster_ModelsModule_exports</title>
<polygon fill="none" stroke="#000000" points="240,-208 240,-260 1229,-260 1229,-208 240,-208"/>
</g>
<g id="clust6" class="cluster">
<title>cluster_ModelsModule_providers</title>
<polygon fill="none" stroke="#000000" points="16,-78 16,-130 1298,-130 1298,-78 16,-78"/>
</g>
<!-- ConnectionModule -->
<g id="node1" class="node">
<title>ConnectionModule</title>
<polygon fill="#8dd3c7" stroke="#000000" points="1438.0968,-122 1435.0968,-126 1414.0968,-126 1411.0968,-122 1313.9032,-122 1313.9032,-86 1438.0968,-86 1438.0968,-122"/>
<text text-anchor="middle" x="1376" y="-99.8" font-family="Times,serif" font-size="14.00" fill="#000000">ConnectionModule</text>
</g>
<!-- ModelsModule -->
<g id="node2" class="node">
<title>ModelsModule</title>
<polygon fill="#8dd3c7" stroke="#000000" points="760.5452,-187 757.5452,-191 736.5452,-191 733.5452,-187 659.4548,-187 659.4548,-151 760.5452,-151 760.5452,-187"/>
<text text-anchor="middle" x="710" y="-164.8" font-family="Times,serif" font-size="14.00" fill="#000000">ModelsModule</text>
</g>
<!-- ConnectionModule&#45;&gt;ModelsModule -->
<g id="edge1" class="edge">
<title>ConnectionModule&#45;&gt;ModelsModule</title>
<path fill="none" stroke="#000000" d="M1376,-122.2222C1376,-140.8285 1376,-167 1376,-167 1376,-167 770.6049,-167 770.6049,-167"/>
<polygon fill="#000000" stroke="#000000" points="770.6049,-163.5001 760.6049,-167 770.6048,-170.5001 770.6049,-163.5001"/>
</g>
<!-- ExpressionService  -->
<g id="node3" class="node">
<title>ExpressionService </title>
<polygon fill="#fb8072" stroke="#000000" points="1220.6856,-252 1097.3144,-252 1097.3144,-216 1220.6856,-216 1220.6856,-252"/>
<text text-anchor="middle" x="1159" y="-229.8" font-family="Times,serif" font-size="14.00" fill="#000000">ExpressionService </text>
</g>
<!-- ModelsModule&#45;&gt;ExpressionService  -->
<g id="edge2" class="edge">
<title>ModelsModule&#45;&gt;ExpressionService </title>
<path fill="none" stroke="#000000" stroke-dasharray="5,2" d="M760.8218,-172C866.8386,-172 1101.8193,-172 1101.8193,-172 1101.8193,-172 1101.8193,-205.7333 1101.8193,-205.7333"/>
<polygon fill="#000000" stroke="#000000" points="1098.3194,-205.7333 1101.8193,-215.7333 1105.3194,-205.7333 1098.3194,-205.7333"/>
</g>
<!-- GroupRelationshipService  -->
<g id="node4" class="node">
<title>GroupRelationshipService </title>
<polygon fill="#fb8072" stroke="#000000" points="1079.0176,-252 910.9824,-252 910.9824,-216 1079.0176,-216 1079.0176,-252"/>
<text text-anchor="middle" x="995" y="-229.8" font-family="Times,serif" font-size="14.00" fill="#000000">GroupRelationshipService </text>
</g>
<!-- ModelsModule&#45;&gt;GroupRelationshipService  -->
<g id="edge3" class="edge">
<title>ModelsModule&#45;&gt;GroupRelationshipService </title>
<path fill="none" stroke="#000000" stroke-dasharray="5,2" d="M760.6239,-177C842.5215,-177 995,-177 995,-177 995,-177 995,-205.9648 995,-205.9648"/>
<polygon fill="#000000" stroke="#000000" points="991.5001,-205.9648 995,-215.9648 998.5001,-205.9649 991.5001,-205.9648"/>
</g>
<!-- GroupService  -->
<g id="node5" class="node">
<title>GroupService </title>
<polygon fill="#fb8072" stroke="#000000" points="892.7451,-252 795.2549,-252 795.2549,-216 892.7451,-216 892.7451,-252"/>
<text text-anchor="middle" x="844" y="-229.8" font-family="Times,serif" font-size="14.00" fill="#000000">GroupService </text>
</g>
<!-- ModelsModule&#45;&gt;GroupService  -->
<g id="edge4" class="edge">
<title>ModelsModule&#45;&gt;GroupService </title>
<path fill="none" stroke="#000000" stroke-dasharray="5,2" d="M760.6072,-182C792.8207,-182 828.5205,-182 828.5205,-182 828.5205,-182 828.5205,-205.8129 828.5205,-205.8129"/>
<polygon fill="#000000" stroke="#000000" points="825.0206,-205.8129 828.5205,-215.8129 832.0206,-205.813 825.0206,-205.8129"/>
</g>
<!-- PreferSettingService  -->
<g id="node6" class="node">
<title>PreferSettingService </title>
<polygon fill="#fb8072" stroke="#000000" points="777.8406,-252 642.1594,-252 642.1594,-216 777.8406,-216 777.8406,-252"/>
<text text-anchor="middle" x="710" y="-229.8" font-family="Times,serif" font-size="14.00" fill="#000000">PreferSettingService </text>
</g>
<!-- ModelsModule&#45;&gt;PreferSettingService  -->
<g id="edge5" class="edge">
<title>ModelsModule&#45;&gt;PreferSettingService </title>
<path fill="none" stroke="#000000" stroke-dasharray="5,2" d="M710,-187.1061C710,-187.1061 710,-205.991 710,-205.991"/>
<polygon fill="#000000" stroke="#000000" points="706.5001,-205.9909 710,-215.991 713.5001,-205.991 706.5001,-205.9909"/>
</g>
<!-- RandomAvatarsService  -->
<g id="node7" class="node">
<title>RandomAvatarsService </title>
<polygon fill="#fb8072" stroke="#000000" points="624.4517,-252 471.5483,-252 471.5483,-216 624.4517,-216 624.4517,-252"/>
<text text-anchor="middle" x="548" y="-229.8" font-family="Times,serif" font-size="14.00" fill="#000000">RandomAvatarsService </text>
</g>
<!-- ModelsModule&#45;&gt;RandomAvatarsService  -->
<g id="edge6" class="edge">
<title>ModelsModule&#45;&gt;RandomAvatarsService </title>
<path fill="none" stroke="#000000" stroke-dasharray="5,2" d="M659.3975,-182C622.2129,-182 578.1423,-182 578.1423,-182 578.1423,-182 578.1423,-205.8129 578.1423,-205.8129"/>
<polygon fill="#000000" stroke="#000000" points="574.6424,-205.8129 578.1423,-215.8129 581.6424,-205.813 574.6424,-205.8129"/>
</g>
<!-- SocketService  -->
<g id="node8" class="node">
<title>SocketService </title>
<polygon fill="#fb8072" stroke="#000000" points="453.5809,-252 354.4191,-252 354.4191,-216 453.5809,-216 453.5809,-252"/>
<text text-anchor="middle" x="404" y="-229.8" font-family="Times,serif" font-size="14.00" fill="#000000">SocketService </text>
</g>
<!-- ModelsModule&#45;&gt;SocketService  -->
<g id="edge7" class="edge">
<title>ModelsModule&#45;&gt;SocketService </title>
<path fill="none" stroke="#000000" stroke-dasharray="5,2" d="M659.1268,-177C572.1145,-177 404,-177 404,-177 404,-177 404,-205.9648 404,-205.9648"/>
<polygon fill="#000000" stroke="#000000" points="400.5001,-205.9648 404,-215.9648 407.5001,-205.9649 400.5001,-205.9648"/>
</g>
<!-- UserService  -->
<g id="node9" class="node">
<title>UserService </title>
<polygon fill="#fb8072" stroke="#000000" points="335.9041,-252 248.0959,-252 248.0959,-216 335.9041,-216 335.9041,-252"/>
<text text-anchor="middle" x="292" y="-229.8" font-family="Times,serif" font-size="14.00" fill="#000000">UserService </text>
</g>
<!-- ModelsModule&#45;&gt;UserService  -->
<g id="edge8" class="edge">
<title>ModelsModule&#45;&gt;UserService </title>
<path fill="none" stroke="#000000" stroke-dasharray="5,2" d="M659.2894,-172C554.1456,-172 322.1042,-172 322.1042,-172 322.1042,-172 322.1042,-205.7333 322.1042,-205.7333"/>
<polygon fill="#000000" stroke="#000000" points="318.6043,-205.7333 322.1042,-215.7333 325.6043,-205.7333 318.6043,-205.7333"/>
</g>
<!-- ExpressionService -->
<g id="node10" class="node">
<title>ExpressionService</title>
<ellipse fill="#fdb462" stroke="#000000" cx="1207" cy="-104" rx="82.8032" ry="18"/>
<text text-anchor="middle" x="1207" y="-99.8" font-family="Times,serif" font-size="14.00" fill="#000000">ExpressionService</text>
</g>
<!-- ExpressionService&#45;&gt;ModelsModule -->
<g id="edge9" class="edge">
<title>ExpressionService&#45;&gt;ModelsModule</title>
<path fill="none" stroke="#000000" d="M1172.4705,-120.4653C1172.4705,-137.6127 1172.4705,-162 1172.4705,-162 1172.4705,-162 770.8154,-162 770.8154,-162"/>
<polygon fill="#000000" stroke="#000000" points="770.8154,-158.5001 760.8154,-162 770.8153,-165.5001 770.8154,-158.5001"/>
</g>
<!-- GroupRelationshipService -->
<g id="node11" class="node">
<title>GroupRelationshipService</title>
<ellipse fill="#fdb462" stroke="#000000" cx="993" cy="-104" rx="113.4625" ry="18"/>
<text text-anchor="middle" x="993" y="-99.8" font-family="Times,serif" font-size="14.00" fill="#000000">GroupRelationshipService</text>
</g>
<!-- GroupRelationshipService&#45;&gt;ModelsModule -->
<g id="edge10" class="edge">
<title>GroupRelationshipService&#45;&gt;ModelsModule</title>
<path fill="none" stroke="#000000" d="M886.0706,-110.0798C886.0706,-124.0012 886.0706,-157 886.0706,-157 886.0706,-157 770.9269,-157 770.9269,-157"/>
<polygon fill="#000000" stroke="#000000" points="770.9269,-153.5001 760.9269,-157 770.9269,-160.5001 770.9269,-153.5001"/>
</g>
<!-- GroupService -->
<g id="node12" class="node">
<title>GroupService</title>
<ellipse fill="#fdb462" stroke="#000000" cx="797" cy="-104" rx="64.8273" ry="18"/>
<text text-anchor="middle" x="797" y="-99.8" font-family="Times,serif" font-size="14.00" fill="#000000">GroupService</text>
</g>
<!-- GroupService&#45;&gt;ModelsModule -->
<g id="edge11" class="edge">
<title>GroupService&#45;&gt;ModelsModule</title>
<path fill="none" stroke="#000000" d="M746.5543,-115.3221C746.5543,-115.3221 746.5543,-140.9424 746.5543,-140.9424"/>
<polygon fill="#000000" stroke="#000000" points="743.0544,-140.9424 746.5543,-150.9424 750.0544,-140.9425 743.0544,-140.9424"/>
</g>
<!-- PreferSettingService -->
<g id="node13" class="node">
<title>PreferSettingService</title>
<ellipse fill="#fdb462" stroke="#000000" cx="623" cy="-104" rx="90.882" ry="18"/>
<text text-anchor="middle" x="623" y="-99.8" font-family="Times,serif" font-size="14.00" fill="#000000">PreferSettingService</text>
</g>
<!-- PreferSettingService&#45;&gt;ModelsModule -->
<g id="edge12" class="edge">
<title>PreferSettingService&#45;&gt;ModelsModule</title>
<path fill="none" stroke="#000000" d="M686.5844,-117.1537C686.5844,-117.1537 686.5844,-140.6938 686.5844,-140.6938"/>
<polygon fill="#000000" stroke="#000000" points="683.0845,-140.6938 686.5844,-150.6938 690.0845,-140.6939 683.0845,-140.6938"/>
</g>
<!-- RandomAvatarsService -->
<g id="node14" class="node">
<title>RandomAvatarsService</title>
<ellipse fill="#fdb462" stroke="#000000" cx="411" cy="-104" rx="102.9879" ry="18"/>
<text text-anchor="middle" x="411" y="-99.8" font-family="Times,serif" font-size="14.00" fill="#000000">RandomAvatarsService</text>
</g>
<!-- RandomAvatarsService&#45;&gt;ModelsModule -->
<g id="edge13" class="edge">
<title>RandomAvatarsService&#45;&gt;ModelsModule</title>
<path fill="none" stroke="#000000" d="M492.7591,-114.9816C492.7591,-130.5057 492.7591,-157 492.7591,-157 492.7591,-157 649.3408,-157 649.3408,-157"/>
<polygon fill="#000000" stroke="#000000" points="649.3409,-160.5001 659.3408,-157 649.3408,-153.5001 649.3409,-160.5001"/>
</g>
<!-- SocketService -->
<g id="node15" class="node">
<title>SocketService</title>
<ellipse fill="#fdb462" stroke="#000000" cx="224" cy="-104" rx="66.0492" ry="18"/>
<text text-anchor="middle" x="224" y="-99.8" font-family="Times,serif" font-size="14.00" fill="#000000">SocketService</text>
</g>
<!-- SocketService&#45;&gt;ModelsModule -->
<g id="edge14" class="edge">
<title>SocketService&#45;&gt;ModelsModule</title>
<path fill="none" stroke="#000000" d="M269.1611,-117.4521C269.1611,-134.5859 269.1611,-162 269.1611,-162 269.1611,-162 649.4302,-162 649.4302,-162"/>
<polygon fill="#000000" stroke="#000000" points="649.4302,-165.5001 659.4302,-162 649.4301,-158.5001 649.4302,-165.5001"/>
</g>
<!-- UserService -->
<g id="node16" class="node">
<title>UserService</title>
<ellipse fill="#fdb462" stroke="#000000" cx="82" cy="-104" rx="58.4415" ry="18"/>
<text text-anchor="middle" x="82" y="-99.8" font-family="Times,serif" font-size="14.00" fill="#000000">UserService</text>
</g>
<!-- UserService&#45;&gt;ModelsModule -->
<g id="edge15" class="edge">
<title>UserService&#45;&gt;ModelsModule</title>
<path fill="none" stroke="#000000" d="M82,-122.2222C82,-140.8285 82,-167 82,-167 82,-167 649.4052,-167 649.4052,-167"/>
<polygon fill="#000000" stroke="#000000" points="649.4052,-170.5001 659.4052,-167 649.4051,-163.5001 649.4052,-170.5001"/>
</g>
</g>
</svg>
