<?xml version="1.0" encoding="UTF-8" standalone="no"?>
<!DOCTYPE svg PUBLIC "-//W3C//DTD SVG 1.1//EN"
 "http://www.w3.org/Graphics/SVG/1.1/DTD/svg11.dtd">
<!-- Generated by graphviz version 2.40.1 (20161225.0304)
 -->
<!-- Title: dependencies Pages: 1 -->
<svg width="504pt" height="211pt"
 viewBox="0.00 0.00 504.00 211.00" xmlns="http://www.w3.org/2000/svg" xmlns:xlink="http://www.w3.org/1999/xlink">
<g id="graph0" class="graph" transform="scale(1 1) rotate(0) translate(4 207)">
<title>dependencies</title>
<polygon fill="#ffffff" stroke="transparent" points="-4,4 -4,-207 500,-207 500,4 -4,4"/>
<text text-anchor="start" x="227.0091" y="-42.4" font-family="sans-serif" font-weight="bold" font-size="14.00" fill="#000000">Legend</text>
<polygon fill="#ffffb3" stroke="transparent" points="14,-10 14,-30 34,-30 34,-10 14,-10"/>
<text text-anchor="start" x="37.629" y="-15.4" font-family="sans-serif" font-size="14.00" fill="#000000"> &#160;Declarations</text>
<polygon fill="#8dd3c7" stroke="transparent" points="127,-10 127,-30 147,-30 147,-10 127,-10"/>
<text text-anchor="start" x="150.7251" y="-15.4" font-family="sans-serif" font-size="14.00" fill="#000000"> &#160;Module</text>
<polygon fill="#80b1d3" stroke="transparent" points="213,-10 213,-30 233,-30 233,-10 213,-10"/>
<text text-anchor="start" x="236.7812" y="-15.4" font-family="sans-serif" font-size="14.00" fill="#000000"> &#160;Bootstrap</text>
<polygon fill="#fdb462" stroke="transparent" points="310,-10 310,-30 330,-30 330,-10 310,-10"/>
<text text-anchor="start" x="333.6732" y="-15.4" font-family="sans-serif" font-size="14.00" fill="#000000"> &#160;Providers</text>
<polygon fill="#fb8072" stroke="transparent" points="406,-10 406,-30 426,-30 426,-10 406,-10"/>
<text text-anchor="start" x="429.7258" y="-15.4" font-family="sans-serif" font-size="14.00" fill="#000000"> &#160;Exports</text>
<g id="clust1" class="cluster">
<title>cluster_RegisterModule</title>
<polygon fill="none" stroke="#000000" stroke-dasharray="1,5" points="97,-70 97,-195 399,-195 399,-70 97,-70"/>
</g>
<g id="clust3" class="cluster">
<title>cluster_RegisterModule_imports</title>
<polygon fill="none" stroke="#000000" points="273,-78 273,-130 391,-130 391,-78 273,-78"/>
</g>
<g id="clust6" class="cluster">
<title>cluster_RegisterModule_providers</title>
<polygon fill="none" stroke="#000000" points="105,-78 105,-130 265,-130 265,-78 105,-78"/>
</g>
<!-- ModelsModule -->
<g id="node1" class="node">
<title>ModelsModule</title>
<polygon fill="#8dd3c7" stroke="#000000" points="382.5452,-122 379.5452,-126 358.5452,-126 355.5452,-122 281.4548,-122 281.4548,-86 382.5452,-86 382.5452,-122"/>
<text text-anchor="middle" x="332" y="-99.8" font-family="Times,serif" font-size="14.00" fill="#000000">ModelsModule</text>
</g>
<!-- RegisterModule -->
<g id="node2" class="node">
<title>RegisterModule</title>
<polygon fill="#8dd3c7" stroke="#000000" points="311.2022,-187 308.2022,-191 287.2022,-191 284.2022,-187 204.7978,-187 204.7978,-151 311.2022,-151 311.2022,-187"/>
<text text-anchor="middle" x="258" y="-164.8" font-family="Times,serif" font-size="14.00" fill="#000000">RegisterModule</text>
</g>
<!-- ModelsModule&#45;&gt;RegisterModule -->
<g id="edge1" class="edge">
<title>ModelsModule&#45;&gt;RegisterModule</title>
<path fill="none" stroke="#000000" d="M296.1645,-122.1061C296.1645,-122.1061 296.1645,-140.991 296.1645,-140.991"/>
<polygon fill="#000000" stroke="#000000" points="292.6645,-140.9909 296.1645,-150.991 299.6645,-140.991 292.6645,-140.9909"/>
</g>
<!-- RegisterService -->
<g id="node3" class="node">
<title>RegisterService</title>
<ellipse fill="#fdb462" stroke="#000000" cx="185" cy="-104" rx="72.3439" ry="18"/>
<text text-anchor="middle" x="185" y="-99.8" font-family="Times,serif" font-size="14.00" fill="#000000">RegisterService</text>
</g>
<!-- RegisterService&#45;&gt;RegisterModule -->
<g id="edge2" class="edge">
<title>RegisterService&#45;&gt;RegisterModule</title>
<path fill="none" stroke="#000000" d="M231.0354,-118.104C231.0354,-118.104 231.0354,-140.7209 231.0354,-140.7209"/>
<polygon fill="#000000" stroke="#000000" points="227.5355,-140.7209 231.0354,-150.7209 234.5355,-140.7209 227.5355,-140.7209"/>
</g>
</g>
</svg>
