<?xml version="1.0" encoding="UTF-8" standalone="no"?>
<!DOCTYPE svg PUBLIC "-//W3C//DTD SVG 1.1//EN"
 "http://www.w3.org/Graphics/SVG/1.1/DTD/svg11.dtd">
<!-- Generated by graphviz version 2.40.1 (20161225.0304)
 -->
<!-- Title: dependencies Pages: 1 -->
<svg width="2831pt" height="355pt"
 viewBox="0.00 0.00 2831.00 355.00" xmlns="http://www.w3.org/2000/svg" xmlns:xlink="http://www.w3.org/1999/xlink">
<g id="graph0" class="graph" transform="scale(1 1) rotate(0) translate(4 351)">
<title>dependencies</title>
<polygon fill="#ffffff" stroke="transparent" points="-4,4 -4,-351 2827,-351 2827,4 -4,4"/>
<text text-anchor="start" x="1390.5091" y="-42.4" font-family="sans-serif" font-weight="bold" font-size="14.00" fill="#000000">Legend</text>
<polygon fill="#ffffb3" stroke="transparent" points="1177.5,-10 1177.5,-30 1197.5,-30 1197.5,-10 1177.5,-10"/>
<text text-anchor="start" x="1201.129" y="-15.4" font-family="sans-serif" font-size="14.00" fill="#000000"> &#160;Declarations</text>
<polygon fill="#8dd3c7" stroke="transparent" points="1290.5,-10 1290.5,-30 1310.5,-30 1310.5,-10 1290.5,-10"/>
<text text-anchor="start" x="1314.2251" y="-15.4" font-family="sans-serif" font-size="14.00" fill="#000000"> &#160;Module</text>
<polygon fill="#80b1d3" stroke="transparent" points="1376.5,-10 1376.5,-30 1396.5,-30 1396.5,-10 1376.5,-10"/>
<text text-anchor="start" x="1400.2812" y="-15.4" font-family="sans-serif" font-size="14.00" fill="#000000"> &#160;Bootstrap</text>
<polygon fill="#fdb462" stroke="transparent" points="1473.5,-10 1473.5,-30 1493.5,-30 1493.5,-10 1473.5,-10"/>
<text text-anchor="start" x="1497.1732" y="-15.4" font-family="sans-serif" font-size="14.00" fill="#000000"> &#160;Providers</text>
<polygon fill="#fb8072" stroke="transparent" points="1569.5,-10 1569.5,-30 1589.5,-30 1589.5,-10 1569.5,-10"/>
<text text-anchor="start" x="1593.2258" y="-15.4" font-family="sans-serif" font-size="14.00" fill="#000000"> &#160;Exports</text>
<g id="clust1" class="cluster">
<title>cluster_AppModule</title>
<polygon fill="none" stroke="#000000" stroke-dasharray="1,5" points="1420,-146 1420,-339 1681,-339 1681,-146 1420,-146"/>
</g>
<g id="clust3" class="cluster">
<title>cluster_AppModule_imports</title>
<polygon fill="none" stroke="#000000" points="1440,-154 1440,-274 1673,-274 1673,-154 1440,-154"/>
</g>
<g id="clust7" class="cluster">
<title>cluster_AuthModule</title>
<polygon fill="none" stroke="#000000" stroke-dasharray="1,5" points="2459,-70 2459,-282 2609,-282 2609,-70 2459,-70"/>
</g>
<g id="clust10" class="cluster">
<title>cluster_AuthModule_exports</title>
<polygon fill="none" stroke="#000000" points="2467,-222 2467,-274 2573,-274 2573,-222 2467,-222"/>
</g>
<g id="clust12" class="cluster">
<title>cluster_AuthModule_providers</title>
<polygon fill="none" stroke="#000000" points="2467,-78 2467,-130 2601,-130 2601,-78 2467,-78"/>
</g>
<g id="clust19" class="cluster">
<title>cluster_LoginModule</title>
<polygon fill="none" stroke="#000000" stroke-dasharray="1,5" points="1689,-146 1689,-214 1847,-214 1847,-146 1689,-146"/>
</g>
<g id="clust24" class="cluster">
<title>cluster_LoginModule_providers</title>
<polygon fill="none" stroke="#000000" points="1697,-154 1697,-206 1839,-206 1839,-154 1697,-154"/>
</g>
<g id="clust25" class="cluster">
<title>cluster_ModelsModule</title>
<polygon fill="none" stroke="#000000" stroke-dasharray="1,5" points="8,-70 8,-138 2451,-138 2451,-70 8,-70"/>
</g>
<g id="clust27" class="cluster">
<title>cluster_ModelsModule_imports</title>
<polygon fill="none" stroke="#000000" points="2303,-78 2303,-130 2443,-130 2443,-78 2303,-78"/>
</g>
<g id="clust28" class="cluster">
<title>cluster_ModelsModule_exports</title>
<polygon fill="none" stroke="#000000" points="1306,-78 1306,-130 2295,-130 2295,-78 1306,-78"/>
</g>
<g id="clust30" class="cluster">
<title>cluster_ModelsModule_providers</title>
<polygon fill="none" stroke="#000000" points="16,-78 16,-130 1298,-130 1298,-78 16,-78"/>
</g>
<g id="clust31" class="cluster">
<title>cluster_RegisterModule</title>
<polygon fill="none" stroke="#000000" stroke-dasharray="1,5" points="1855,-146 1855,-214 2031,-214 2031,-146 1855,-146"/>
</g>
<g id="clust36" class="cluster">
<title>cluster_RegisterModule_providers</title>
<polygon fill="none" stroke="#000000" points="1863,-154 1863,-206 2023,-206 2023,-154 1863,-154"/>
</g>
<g id="clust37" class="cluster">
<title>cluster_SocketModule</title>
<polygon fill="none" stroke="#000000" stroke-dasharray="1,5" points="2617,-70 2617,-282 2815,-282 2815,-70 2617,-70"/>
</g>
<g id="clust40" class="cluster">
<title>cluster_SocketModule_exports</title>
<polygon fill="none" stroke="#000000" points="2646,-222 2646,-274 2786,-274 2786,-222 2646,-222"/>
</g>
<g id="clust42" class="cluster">
<title>cluster_SocketModule_providers</title>
<polygon fill="none" stroke="#000000" points="2625,-78 2625,-130 2807,-130 2807,-78 2625,-78"/>
</g>
<!-- LoginModule -->
<g id="node1" class="node">
<title>LoginModule</title>
<polygon fill="#8dd3c7" stroke="#000000" points="1665.493,-266 1662.493,-270 1641.493,-270 1638.493,-266 1572.507,-266 1572.507,-230 1665.493,-230 1665.493,-266"/>
<text text-anchor="middle" x="1619" y="-243.8" font-family="Times,serif" font-size="14.00" fill="#000000">LoginModule</text>
</g>
<!-- AppModule -->
<g id="node4" class="node">
<title>AppModule</title>
<polygon fill="#8dd3c7" stroke="#000000" points="1542.6571,-331 1539.6571,-335 1518.6571,-335 1515.6571,-331 1459.3429,-331 1459.3429,-295 1542.6571,-295 1542.6571,-331"/>
<text text-anchor="middle" x="1501" y="-308.8" font-family="Times,serif" font-size="14.00" fill="#000000">AppModule</text>
</g>
<!-- LoginModule&#45;&gt;AppModule -->
<g id="edge1" class="edge">
<title>LoginModule&#45;&gt;AppModule</title>
<path fill="none" stroke="#000000" d="M1619,-266.2843C1619,-287.3211 1619,-319 1619,-319 1619,-319 1552.9346,-319 1552.9346,-319"/>
<polygon fill="#000000" stroke="#000000" points="1552.9347,-315.5001 1542.9346,-319 1552.9346,-322.5001 1552.9347,-315.5001"/>
</g>
<!-- ModelsModule -->
<g id="node2" class="node">
<title>ModelsModule</title>
<polygon fill="#8dd3c7" stroke="#000000" points="1550.5452,-198 1547.5452,-202 1526.5452,-202 1523.5452,-198 1449.4548,-198 1449.4548,-162 1550.5452,-162 1550.5452,-198"/>
<text text-anchor="middle" x="1500" y="-175.8" font-family="Times,serif" font-size="14.00" fill="#000000">ModelsModule</text>
</g>
<!-- ModelsModule&#45;&gt;LoginModule -->
<g id="edge8" class="edge">
<title>ModelsModule&#45;&gt;LoginModule</title>
<path fill="none" stroke="#000000" d="M1550.8332,-186C1576.4991,-186 1602.2657,-186 1602.2657,-186 1602.2657,-186 1602.2657,-219.7333 1602.2657,-219.7333"/>
<polygon fill="#000000" stroke="#000000" points="1598.7658,-219.7333 1602.2657,-229.7333 1605.7658,-219.7333 1598.7658,-219.7333"/>
</g>
<!-- RegisterModule -->
<g id="node3" class="node">
<title>RegisterModule</title>
<polygon fill="#8dd3c7" stroke="#000000" points="1554.2022,-266 1551.2022,-270 1530.2022,-270 1527.2022,-266 1447.7978,-266 1447.7978,-230 1554.2022,-230 1554.2022,-266"/>
<text text-anchor="middle" x="1501" y="-243.8" font-family="Times,serif" font-size="14.00" fill="#000000">RegisterModule</text>
</g>
<!-- ModelsModule&#45;&gt;RegisterModule -->
<g id="edge25" class="edge">
<title>ModelsModule&#45;&gt;RegisterModule</title>
<path fill="none" stroke="#000000" d="M1474.614,-198.2228C1474.614,-198.2228 1474.614,-219.7269 1474.614,-219.7269"/>
<polygon fill="#000000" stroke="#000000" points="1471.114,-219.7269 1474.614,-229.7269 1478.114,-219.727 1471.114,-219.7269"/>
</g>
<!-- ModelsModule&#45;&gt;AppModule -->
<g id="edge2" class="edge">
<title>ModelsModule&#45;&gt;AppModule</title>
<path fill="none" stroke="#000000" d="M1550.5527,-192C1555.1703,-192 1558.1555,-192 1558.1555,-192 1558.1555,-192 1558.1555,-307 1558.1555,-307 1558.1555,-307 1552.8389,-307 1552.8389,-307"/>
<polygon fill="#000000" stroke="#000000" points="1552.8389,-303.5001 1542.8389,-307 1552.8388,-310.5001 1552.8389,-303.5001"/>
</g>
<!-- AuthModule -->
<g id="node5" class="node">
<title>AuthModule</title>
<polygon fill="#8dd3c7" stroke="#000000" points="2558.5482,-198 2555.5482,-202 2534.5482,-202 2531.5482,-198 2471.4518,-198 2471.4518,-162 2558.5482,-162 2558.5482,-198"/>
<text text-anchor="middle" x="2515" y="-175.8" font-family="Times,serif" font-size="14.00" fill="#000000">AuthModule</text>
</g>
<!-- ModelsModule&#45;&gt;AuthModule -->
<g id="edge4" class="edge">
<title>ModelsModule&#45;&gt;AuthModule</title>
<path fill="none" stroke="#000000" d="M1500,-198.1274C1500,-208.7109 1500,-220 1500,-220 1500,-220 2503.0996,-220 2503.0996,-220 2503.0996,-220 2503.0996,-208.1274 2503.0996,-208.1274"/>
<polygon fill="#000000" stroke="#000000" points="2506.5997,-208.1274 2503.0996,-198.1274 2499.5997,-208.1275 2506.5997,-208.1274"/>
</g>
<!-- ExpressionService  -->
<g id="node10" class="node">
<title>ExpressionService </title>
<polygon fill="#fb8072" stroke="#000000" points="1437.6856,-122 1314.3144,-122 1314.3144,-86 1437.6856,-86 1437.6856,-122"/>
<text text-anchor="middle" x="1376" y="-99.8" font-family="Times,serif" font-size="14.00" fill="#000000">ExpressionService </text>
</g>
<!-- ModelsModule&#45;&gt;ExpressionService  -->
<g id="edge11" class="edge">
<title>ModelsModule&#45;&gt;ExpressionService </title>
<path fill="none" stroke="#000000" stroke-dasharray="5,2" d="M1449.2067,-166C1414.9624,-166 1376,-166 1376,-166 1376,-166 1376,-132.2667 1376,-132.2667"/>
<polygon fill="#000000" stroke="#000000" points="1379.5001,-132.2667 1376,-122.2667 1372.5001,-132.2667 1379.5001,-132.2667"/>
</g>
<!-- GroupRelationshipService  -->
<g id="node11" class="node">
<title>GroupRelationshipService </title>
<polygon fill="#fb8072" stroke="#000000" points="2287.0176,-122 2118.9824,-122 2118.9824,-86 2287.0176,-86 2287.0176,-122"/>
<text text-anchor="middle" x="2203" y="-99.8" font-family="Times,serif" font-size="14.00" fill="#000000">GroupRelationshipService </text>
</g>
<!-- ModelsModule&#45;&gt;GroupRelationshipService  -->
<g id="edge12" class="edge">
<title>ModelsModule&#45;&gt;GroupRelationshipService </title>
<path fill="none" stroke="#000000" stroke-dasharray="5,2" d="M1529.3013,-161.8056C1529.3013,-153.7218 1529.3013,-146 1529.3013,-146 1529.3013,-146 2203,-146 2203,-146 2203,-146 2203,-132.0555 2203,-132.0555"/>
<polygon fill="#000000" stroke="#000000" points="2206.5001,-132.0555 2203,-122.0555 2199.5001,-132.0556 2206.5001,-132.0555"/>
</g>
<!-- GroupService  -->
<g id="node12" class="node">
<title>GroupService </title>
<polygon fill="#fb8072" stroke="#000000" points="2100.7451,-122 2003.2549,-122 2003.2549,-86 2100.7451,-86 2100.7451,-122"/>
<text text-anchor="middle" x="2052" y="-99.8" font-family="Times,serif" font-size="14.00" fill="#000000">GroupService </text>
</g>
<!-- ModelsModule&#45;&gt;GroupService  -->
<g id="edge13" class="edge">
<title>ModelsModule&#45;&gt;GroupService </title>
<path fill="none" stroke="#000000" stroke-dasharray="5,2" d="M1514.6507,-161.9445C1514.6507,-150.561 1514.6507,-138 1514.6507,-138 1514.6507,-138 2009.2747,-138 2009.2747,-138 2009.2747,-138 2009.2747,-132.1944 2009.2747,-132.1944"/>
<polygon fill="#000000" stroke="#000000" points="2012.7748,-132.1944 2009.2747,-122.1944 2005.7748,-132.1945 2012.7748,-132.1944"/>
</g>
<!-- PreferSettingService  -->
<g id="node13" class="node">
<title>PreferSettingService </title>
<polygon fill="#fb8072" stroke="#000000" points="1985.8406,-122 1850.1594,-122 1850.1594,-86 1985.8406,-86 1985.8406,-122"/>
<text text-anchor="middle" x="1918" y="-99.8" font-family="Times,serif" font-size="14.00" fill="#000000">PreferSettingService </text>
</g>
<!-- ModelsModule&#45;&gt;PreferSettingService  -->
<g id="edge14" class="edge">
<title>ModelsModule&#45;&gt;PreferSettingService </title>
<path fill="none" stroke="#000000" stroke-dasharray="5,2" d="M1500,-161.9489C1500,-147.627 1500,-130 1500,-130 1500,-130 1860.5791,-130 1860.5791,-130 1860.5791,-130 1860.5791,-129.2058 1860.5791,-129.2058"/>
<polygon fill="#000000" stroke="#000000" points="1864.0792,-132.0578 1860.5791,-122.0579 1857.0792,-132.0579 1864.0792,-132.0578"/>
</g>
<!-- RandomAvatarsService  -->
<g id="node14" class="node">
<title>RandomAvatarsService </title>
<polygon fill="#fb8072" stroke="#000000" points="1832.4517,-122 1679.5483,-122 1679.5483,-86 1832.4517,-86 1832.4517,-122"/>
<text text-anchor="middle" x="1756" y="-99.8" font-family="Times,serif" font-size="14.00" fill="#000000">RandomAvatarsService </text>
</g>
<!-- ModelsModule&#45;&gt;RandomAvatarsService  -->
<g id="edge15" class="edge">
<title>ModelsModule&#45;&gt;RandomAvatarsService </title>
<path fill="none" stroke="#000000" stroke-dasharray="5,2" d="M1550.7912,-174C1607.7809,-174 1692.357,-174 1692.357,-174 1692.357,-174 1692.357,-132.0267 1692.357,-132.0267"/>
<polygon fill="#000000" stroke="#000000" points="1695.8571,-132.0267 1692.357,-122.0267 1688.8571,-132.0268 1695.8571,-132.0267"/>
</g>
<!-- SocketService  -->
<g id="node15" class="node">
<title>SocketService </title>
<polygon fill="#fb8072" stroke="#000000" points="1661.5809,-122 1562.4191,-122 1562.4191,-86 1661.5809,-86 1661.5809,-122"/>
<text text-anchor="middle" x="1612" y="-99.8" font-family="Times,serif" font-size="14.00" fill="#000000">SocketService </text>
</g>
<!-- ModelsModule&#45;&gt;SocketService  -->
<g id="edge16" class="edge">
<title>ModelsModule&#45;&gt;SocketService </title>
<path fill="none" stroke="#000000" stroke-dasharray="5,2" d="M1550.7068,-168C1560.2764,-168 1567.3568,-168 1567.3568,-168 1567.3568,-168 1567.3568,-132.1686 1567.3568,-132.1686"/>
<polygon fill="#000000" stroke="#000000" points="1570.8568,-132.1686 1567.3568,-122.1686 1563.8568,-132.1687 1570.8568,-132.1686"/>
</g>
<!-- UserService  -->
<g id="node16" class="node">
<title>UserService </title>
<polygon fill="#fb8072" stroke="#000000" points="1543.9041,-122 1456.0959,-122 1456.0959,-86 1543.9041,-86 1543.9041,-122"/>
<text text-anchor="middle" x="1500" y="-99.8" font-family="Times,serif" font-size="14.00" fill="#000000">UserService </text>
</g>
<!-- ModelsModule&#45;&gt;UserService  -->
<g id="edge17" class="edge">
<title>ModelsModule&#45;&gt;UserService </title>
<path fill="none" stroke="#000000" stroke-dasharray="5,2" d="M1470.6987,-161.9891C1470.6987,-161.9891 1470.6987,-132.145 1470.6987,-132.145"/>
<polygon fill="#000000" stroke="#000000" points="1474.1988,-132.145 1470.6987,-122.145 1467.1988,-132.1451 1474.1988,-132.145"/>
</g>
<!-- RegisterModule&#45;&gt;AppModule -->
<g id="edge3" class="edge">
<title>RegisterModule&#45;&gt;AppModule</title>
<path fill="none" stroke="#000000" d="M1501,-266.1061C1501,-266.1061 1501,-284.991 1501,-284.991"/>
<polygon fill="#000000" stroke="#000000" points="1497.5001,-284.9909 1501,-294.991 1504.5001,-284.991 1497.5001,-284.9909"/>
</g>
<!-- AuthModule&#45;&gt;LoginModule -->
<g id="edge7" class="edge">
<title>AuthModule&#45;&gt;LoginModule</title>
<path fill="none" stroke="#000000" d="M2471.2852,-180C2408.1635,-180 2298.9802,-180 2298.9802,-180 2298.9802,-180 2298.9802,-248 2298.9802,-248 2298.9802,-248 1675.7378,-248 1675.7378,-248"/>
<polygon fill="#000000" stroke="#000000" points="1675.7378,-244.5001 1665.7378,-248 1675.7378,-251.5001 1675.7378,-244.5001"/>
</g>
<!-- AuthService  -->
<g id="node6" class="node">
<title>AuthService </title>
<polygon fill="#fb8072" stroke="#000000" points="2564.9761,-266 2475.0239,-266 2475.0239,-230 2564.9761,-230 2564.9761,-266"/>
<text text-anchor="middle" x="2520" y="-243.8" font-family="Times,serif" font-size="14.00" fill="#000000">AuthService </text>
</g>
<!-- AuthModule&#45;&gt;AuthService  -->
<g id="edge5" class="edge">
<title>AuthModule&#45;&gt;AuthService </title>
<path fill="none" stroke="#000000" stroke-dasharray="5,2" d="M2530.9365,-198.2228C2530.9365,-198.2228 2530.9365,-219.7269 2530.9365,-219.7269"/>
<polygon fill="#000000" stroke="#000000" points="2527.4366,-219.7269 2530.9365,-229.7269 2534.4366,-219.727 2527.4366,-219.7269"/>
</g>
<!-- AuthService -->
<g id="node7" class="node">
<title>AuthService</title>
<ellipse fill="#fdb462" stroke="#000000" cx="2534" cy="-104" rx="59.1083" ry="18"/>
<text text-anchor="middle" x="2534" y="-99.8" font-family="Times,serif" font-size="14.00" fill="#000000">AuthService</text>
</g>
<!-- AuthService&#45;&gt;AuthModule -->
<g id="edge6" class="edge">
<title>AuthService&#45;&gt;AuthModule</title>
<path fill="none" stroke="#000000" d="M2516.7348,-121.2456C2516.7348,-121.2456 2516.7348,-151.7629 2516.7348,-151.7629"/>
<polygon fill="#000000" stroke="#000000" points="2513.2349,-151.7628 2516.7348,-161.7629 2520.2349,-151.7629 2513.2349,-151.7628"/>
</g>
<!-- LoginService -->
<g id="node8" class="node">
<title>LoginService</title>
<ellipse fill="#fdb462" stroke="#000000" cx="1768" cy="-180" rx="63.1209" ry="18"/>
<text text-anchor="middle" x="1768" y="-175.8" font-family="Times,serif" font-size="14.00" fill="#000000">LoginService</text>
</g>
<!-- LoginService&#45;&gt;LoginModule -->
<g id="edge9" class="edge">
<title>LoginService&#45;&gt;LoginModule</title>
<path fill="none" stroke="#000000" d="M1704.7907,-180C1669.2824,-180 1632.0278,-180 1632.0278,-180 1632.0278,-180 1632.0278,-219.7772 1632.0278,-219.7772"/>
<polygon fill="#000000" stroke="#000000" points="1628.5279,-219.7772 1632.0278,-229.7772 1635.5279,-219.7773 1628.5279,-219.7772"/>
</g>
<!-- ConnectionModule -->
<g id="node9" class="node">
<title>ConnectionModule</title>
<polygon fill="#8dd3c7" stroke="#000000" points="2435.0968,-122 2432.0968,-126 2411.0968,-126 2408.0968,-122 2310.9032,-122 2310.9032,-86 2435.0968,-86 2435.0968,-122"/>
<text text-anchor="middle" x="2373" y="-99.8" font-family="Times,serif" font-size="14.00" fill="#000000">ConnectionModule</text>
</g>
<!-- ConnectionModule&#45;&gt;ModelsModule -->
<g id="edge10" class="edge">
<title>ConnectionModule&#45;&gt;ModelsModule</title>
<path fill="none" stroke="#000000" d="M2373,-122.0511C2373,-136.373 2373,-154 2373,-154 2373,-154 1485.3493,-154 1485.3493,-154 1485.3493,-154 1485.3493,-154.7942 1485.3493,-154.7942"/>
<polygon fill="#000000" stroke="#000000" points="1481.8495,-151.9421 1485.3493,-161.9421 1488.8495,-151.9422 1481.8495,-151.9421"/>
</g>
<!-- ExpressionService -->
<g id="node17" class="node">
<title>ExpressionService</title>
<ellipse fill="#fdb462" stroke="#000000" cx="107" cy="-104" rx="82.8032" ry="18"/>
<text text-anchor="middle" x="107" y="-99.8" font-family="Times,serif" font-size="14.00" fill="#000000">ExpressionService</text>
</g>
<!-- ExpressionService&#45;&gt;ModelsModule -->
<g id="edge18" class="edge">
<title>ExpressionService&#45;&gt;ModelsModule</title>
<path fill="none" stroke="#000000" d="M107,-122.2128C107,-148.5111 107,-194 107,-194 107,-194 1439.1857,-194 1439.1857,-194"/>
<polygon fill="#000000" stroke="#000000" points="1439.1857,-197.5001 1449.1857,-194 1439.1856,-190.5001 1439.1857,-197.5001"/>
</g>
<!-- GroupRelationshipService -->
<g id="node18" class="node">
<title>GroupRelationshipService</title>
<ellipse fill="#fdb462" stroke="#000000" cx="1177" cy="-104" rx="113.4625" ry="18"/>
<text text-anchor="middle" x="1177" y="-99.8" font-family="Times,serif" font-size="14.00" fill="#000000">GroupRelationshipService</text>
</g>
<!-- GroupRelationshipService&#45;&gt;ModelsModule -->
<g id="edge19" class="edge">
<title>GroupRelationshipService&#45;&gt;ModelsModule</title>
<path fill="none" stroke="#000000" d="M1177,-122.0348C1177,-141.5762 1177,-170 1177,-170 1177,-170 1439.1759,-170 1439.1759,-170"/>
<polygon fill="#000000" stroke="#000000" points="1439.176,-173.5001 1449.1759,-170 1439.1759,-166.5001 1439.176,-173.5001"/>
</g>
<!-- GroupService -->
<g id="node19" class="node">
<title>GroupService</title>
<ellipse fill="#fdb462" stroke="#000000" cx="981" cy="-104" rx="64.8273" ry="18"/>
<text text-anchor="middle" x="981" y="-99.8" font-family="Times,serif" font-size="14.00" fill="#000000">GroupService</text>
</g>
<!-- GroupService&#45;&gt;ModelsModule -->
<g id="edge20" class="edge">
<title>GroupService&#45;&gt;ModelsModule</title>
<path fill="none" stroke="#000000" d="M981,-122.0267C981,-142.7672 981,-174 981,-174 981,-174 1439.2911,-174 1439.2911,-174"/>
<polygon fill="#000000" stroke="#000000" points="1439.2912,-177.5001 1449.2911,-174 1439.2911,-170.5001 1439.2912,-177.5001"/>
</g>
<!-- PreferSettingService -->
<g id="node20" class="node">
<title>PreferSettingService</title>
<ellipse fill="#fdb462" stroke="#000000" cx="807" cy="-104" rx="90.882" ry="18"/>
<text text-anchor="middle" x="807" y="-99.8" font-family="Times,serif" font-size="14.00" fill="#000000">PreferSettingService</text>
</g>
<!-- PreferSettingService&#45;&gt;ModelsModule -->
<g id="edge21" class="edge">
<title>PreferSettingService&#45;&gt;ModelsModule</title>
<path fill="none" stroke="#000000" d="M807,-122.2921C807,-144.2057 807,-178 807,-178 807,-178 1439.3228,-178 1439.3228,-178"/>
<polygon fill="#000000" stroke="#000000" points="1439.3229,-181.5001 1449.3228,-178 1439.3228,-174.5001 1439.3229,-181.5001"/>
</g>
<!-- RandomAvatarsService -->
<g id="node21" class="node">
<title>RandomAvatarsService</title>
<ellipse fill="#fdb462" stroke="#000000" cx="595" cy="-104" rx="102.9879" ry="18"/>
<text text-anchor="middle" x="595" y="-99.8" font-family="Times,serif" font-size="14.00" fill="#000000">RandomAvatarsService</text>
</g>
<!-- RandomAvatarsService&#45;&gt;ModelsModule -->
<g id="edge22" class="edge">
<title>RandomAvatarsService&#45;&gt;ModelsModule</title>
<path fill="none" stroke="#000000" d="M595,-122.0908C595,-145.1328 595,-182 595,-182 595,-182 1439.4041,-182 1439.4041,-182"/>
<polygon fill="#000000" stroke="#000000" points="1439.4041,-185.5001 1449.4041,-182 1439.404,-178.5001 1439.4041,-185.5001"/>
</g>
<!-- SocketService -->
<g id="node22" class="node">
<title>SocketService</title>
<ellipse fill="#fdb462" stroke="#000000" cx="408" cy="-104" rx="66.0492" ry="18"/>
<text text-anchor="middle" x="408" y="-99.8" font-family="Times,serif" font-size="14.00" fill="#000000">SocketService</text>
</g>
<!-- SocketService&#45;&gt;ModelsModule -->
<g id="edge23" class="edge">
<title>SocketService&#45;&gt;ModelsModule</title>
<path fill="none" stroke="#000000" d="M408,-122.1985C408,-146.3563 408,-186 408,-186 408,-186 1439.1585,-186 1439.1585,-186"/>
<polygon fill="#000000" stroke="#000000" points="1439.1586,-189.5001 1449.1585,-186 1439.1585,-182.5001 1439.1586,-189.5001"/>
</g>
<!-- UserService -->
<g id="node23" class="node">
<title>UserService</title>
<ellipse fill="#fdb462" stroke="#000000" cx="266" cy="-104" rx="58.4415" ry="18"/>
<text text-anchor="middle" x="266" y="-99.8" font-family="Times,serif" font-size="14.00" fill="#000000">UserService</text>
</g>
<!-- UserService&#45;&gt;ModelsModule -->
<g id="edge24" class="edge">
<title>UserService&#45;&gt;ModelsModule</title>
<path fill="none" stroke="#000000" d="M266,-122.2384C266,-147.4829 266,-190 266,-190 266,-190 1439.3252,-190 1439.3252,-190"/>
<polygon fill="#000000" stroke="#000000" points="1439.3252,-193.5001 1449.3252,-190 1439.3251,-186.5001 1439.3252,-193.5001"/>
</g>
<!-- RegisterService -->
<g id="node24" class="node">
<title>RegisterService</title>
<ellipse fill="#fdb462" stroke="#000000" cx="1943" cy="-180" rx="72.3439" ry="18"/>
<text text-anchor="middle" x="1943" y="-175.8" font-family="Times,serif" font-size="14.00" fill="#000000">RegisterService</text>
</g>
<!-- RegisterService&#45;&gt;RegisterModule -->
<g id="edge26" class="edge">
<title>RegisterService&#45;&gt;RegisterModule</title>
<path fill="none" stroke="#000000" d="M1943,-198.2015C1943,-204.028 1943,-209 1943,-209 1943,-209 1525.3861,-209 1525.3861,-209 1525.3861,-209 1525.3861,-219.8701 1525.3861,-219.8701"/>
<polygon fill="#000000" stroke="#000000" points="1521.8861,-219.8701 1525.3861,-229.8701 1528.8861,-219.8701 1521.8861,-219.8701"/>
</g>
<!-- WebsocketService  -->
<g id="node25" class="node">
<title>WebsocketService </title>
<polygon fill="#fb8072" stroke="#000000" points="2777.6716,-266 2654.3284,-266 2654.3284,-230 2777.6716,-230 2777.6716,-266"/>
<text text-anchor="middle" x="2716" y="-243.8" font-family="Times,serif" font-size="14.00" fill="#000000">WebsocketService </text>
</g>
<!-- SocketModule -->
<g id="node26" class="node">
<title>SocketModule</title>
<polygon fill="#8dd3c7" stroke="#000000" points="2764.6528,-198 2761.6528,-202 2740.6528,-202 2737.6528,-198 2667.3472,-198 2667.3472,-162 2764.6528,-162 2764.6528,-198"/>
<text text-anchor="middle" x="2716" y="-175.8" font-family="Times,serif" font-size="14.00" fill="#000000">SocketModule</text>
</g>
<!-- SocketModule&#45;&gt;WebsocketService  -->
<g id="edge27" class="edge">
<title>SocketModule&#45;&gt;WebsocketService </title>
<path fill="none" stroke="#000000" stroke-dasharray="5,2" d="M2716,-198.2228C2716,-198.2228 2716,-219.7269 2716,-219.7269"/>
<polygon fill="#000000" stroke="#000000" points="2712.5001,-219.7269 2716,-229.7269 2719.5001,-219.727 2712.5001,-219.7269"/>
</g>
<!-- WebsocketService -->
<g id="node27" class="node">
<title>WebsocketService</title>
<ellipse fill="#fdb462" stroke="#000000" cx="2716" cy="-104" rx="82.7839" ry="18"/>
<text text-anchor="middle" x="2716" y="-99.8" font-family="Times,serif" font-size="14.00" fill="#000000">WebsocketService</text>
</g>
<!-- WebsocketService&#45;&gt;SocketModule -->
<g id="edge28" class="edge">
<title>WebsocketService&#45;&gt;SocketModule</title>
<path fill="none" stroke="#000000" d="M2716,-122.0109C2716,-122.0109 2716,-151.855 2716,-151.855"/>
<polygon fill="#000000" stroke="#000000" points="2712.5001,-151.8549 2716,-161.855 2719.5001,-151.855 2712.5001,-151.8549"/>
</g>
</g>
</svg>
